<svg width="1600" height="640" viewBox="0 0 1600 640" fill="none" xmlns="http://www.w3.org/2000/svg">
  <defs>
    <linearGradient id="bg" x1="40" y1="20" x2="1560" y2="620" gradientUnits="userSpaceOnUse">
      <stop offset="0" stop-color="#02121E"/>
      <stop offset="0.52" stop-color="#0C2C48"/>
      <stop offset="1" stop-color="#124A74"/>
    </linearGradient>
    <linearGradient id="accentA" x1="250" y1="160" x2="980" y2="520" gradientUnits="userSpaceOnUse">
      <stop offset="0" stop-color="#18E6D3" stop-opacity="0.58"/>
      <stop offset="1" stop-color="#18E6D3" stop-opacity="0"/>
    </linearGradient>
    <linearGradient id="accentB" x1="900" y1="120" x2="1460" y2="560" gradientUnits="userSpaceOnUse">
      <stop offset="0" stop-color="#2CA3FF" stop-opacity="0.42"/>
      <stop offset="1" stop-color="#2CA3FF" stop-opacity="0"/>
    </linearGradient>
    <radialGradient id="halo" cx="0" cy="0" r="1" gradientUnits="userSpaceOnUse" gradientTransform="translate(1230 180) rotate(138.6) scale(620 470)">
      <stop stop-color="#6DD9FF" stop-opacity="0.42"/>
      <stop offset="1" stop-color="#6DD9FF" stop-opacity="0"/>
    </radialGradient>
  </defs>

  <rect width="1600" height="640" rx="18" fill="url(#bg)"/>
  <rect x="40" y="42" width="1520" height="556" rx="16" stroke="rgba(255,255,255,0.12)" fill="none"/>

  <ellipse cx="1180" cy="178" rx="470" ry="300" fill="url(#halo)"/>
  <path d="M170 520C340 430 500 374 690 352C880 330 1090 346 1380 488V610H170V520Z" fill="url(#accentA)"/>
  <path d="M620 470C810 394 970 332 1180 326C1330 322 1450 358 1560 438V610H620V470Z" fill="url(#accentB)"/>

  <g opacity="0.22">
    <path d="M1120 84L1410 84" stroke="white" stroke-width="2"/>
    <path d="M1120 124L1450 124" stroke="white" stroke-width="2"/>
    <path d="M1120 164L1490 164" stroke="white" stroke-width="2"/>
    <path d="M1120 204L1520 204" stroke="white" stroke-width="2"/>
  </g>

  <text x="120" y="214" fill="#FFFFFF" font-family="Segoe UI, Arial, sans-serif" font-size="74" font-weight="700" letter-spacing="0.5">CreditChain</text>
  <text x="120" y="278" fill="#9DEBFF" font-family="Segoe UI, Arial, sans-serif" font-size="30" font-weight="600">Crypto banking barebone infrastructure</text>
  <text x="120" y="328" fill="#DDF7FF" font-family="Segoe UI, Arial, sans-serif" font-size="27" font-weight="500">Building the future crypto banking infrastructure</text>
  <text x="120" y="392" fill="#E8FAFF" font-family="Segoe UI, Arial, sans-serif" font-size="25" font-weight="500">Pillar for stablecoins, digital assets, crypto finance, and crypto capital markets</text>

  <g>
    <rect x="120" y="448" width="120" height="42" rx="9" fill="rgba(255,255,255,0.11)" stroke="rgba(255,255,255,0.26)"/>
    <text x="160" y="476" fill="#FFFFFF" font-family="Segoe UI, Arial, sans-serif" font-size="21" font-weight="700">CCC</text>
    <text x="258" y="476" fill="#A9F3FF" font-family="Segoe UI, Arial, sans-serif" font-size="21" font-weight="500">Native Token Symbol</text>
  </g>
</svg>
